<svg width="200" height="200" viewBox="0 0 200 200" fill="none" xmlns="http://www.w3.org/2000/svg">
    <rect width="200" height="200" rx="50" fill="#4C6EF5"/>
    <path d="M111.323 164.75C99.8897 164.75 90.7897 162.387 84.0231 157.662C77.2564 152.879 73.2605 145.996 72.0355 137.012H68.0105L71.1605 122.575C72.6189 129.692 76.6439 135.35 83.2355 139.55C89.8272 143.692 97.8189 145.762 107.211 145.762C115.377 145.762 121.59 144.187 125.848 141.037C130.106 137.887 132.236 133.308 132.236 127.3C132.236 123.158 131.186 119.717 129.086 116.975C126.986 114.175 123.602 111.929 118.936 110.237C114.327 108.487 108.144 107.117 100.386 106.125C88.8939 104.667 79.3272 102.158 71.6855 98.6C64.1022 94.9833 58.4147 90.3458 54.623 84.6875C50.8314 79.0292 48.9355 72.2917 48.9355 64.475C48.9355 53.3917 52.6105 44.7292 59.9605 38.4875C67.3105 32.1875 77.4897 29.0375 90.4981 29.0375C97.9064 29.0375 104.236 30.0875 109.486 32.1875C114.736 34.2875 118.877 37.4375 121.911 41.6375C125.002 45.7792 126.898 50.9708 127.598 57.2125H131.623L128.386 71.125C127.044 64.125 123.223 58.525 116.923 54.325C110.623 50.0667 103.04 47.9375 94.1731 47.9375C87.1147 47.9375 81.573 49.3083 77.548 52.05C73.5814 54.7333 71.598 58.5542 71.598 63.5125C71.598 66.8958 72.6772 69.9 74.8355 72.525C76.9939 75.0917 80.4355 77.3083 85.1605 79.175C89.8855 81.0417 96.0689 82.6167 103.711 83.9C115.727 85.5917 125.498 88.1875 133.023 91.6875C140.548 95.1292 146.061 99.6792 149.561 105.337C153.061 110.937 154.811 117.85 154.811 126.075C154.811 138.267 150.99 147.775 143.348 154.6C135.765 161.367 125.09 164.75 111.323 164.75ZM49.1105 163V122.575H71.1605V163H49.1105ZM128.386 71.125V30.875H150.436V71.125H128.386Z"
          fill="white"/>
</svg>
